<?xml version="1.0" encoding="UTF-8"?>
<!DOCTYPE svg PUBLIC "-//W3C//DTD SVG 1.1//EN" "http://www.w3.org/Graphics/SVG/1.1/DTD/svg11.dtd">
<svg xmlns="http://www.w3.org/2000/svg" version="1.1" width="512px" height="512px" style="shape-rendering:geometricPrecision; text-rendering:geometricPrecision; image-rendering:optimizeQuality; fill-rule:evenodd; clip-rule:evenodd" xmlns:xlink="http://www.w3.org/1999/xlink">
<g><path style="opacity:0.975" fill="#fda93d" d="M 232.5,-0.5 C 247.833,-0.5 263.167,-0.5 278.5,-0.5C 304.12,2.07172 328.787,8.40506 352.5,18.5C 287.5,19.8333 222.5,19.8333 157.5,18.5C 181.678,8.53918 206.678,2.20584 232.5,-0.5 Z"/></g>
<g><path style="opacity:0.99" fill="#fda43e" d="M 157.5,18.5 C 222.5,19.8333 287.5,19.8333 352.5,18.5C 362.199,21.5173 371.199,25.8506 379.5,31.5C 348.167,31.5 316.833,31.5 285.5,31.5C 263.868,29.2624 242.201,29.5957 220.5,32.5C 191.005,31.5019 161.338,31.1686 131.5,31.5C 139.57,26.1317 148.237,21.7983 157.5,18.5 Z"/></g>
<g><path style="opacity:0.978" fill="#fd9f3e" d="M 131.5,31.5 C 161.338,31.1686 191.005,31.5019 220.5,32.5C 199.824,36.2813 179.824,42.2813 160.5,50.5C 140.833,50.5 121.167,50.5 101.5,50.5C 110.816,43.1703 120.816,36.837 131.5,31.5 Z"/></g>
<g><path style="opacity:0.979" fill="#fd9f3e" d="M 285.5,31.5 C 316.833,31.5 348.167,31.5 379.5,31.5C 389.68,36.681 399.346,42.681 408.5,49.5C 389.341,50.497 370.007,50.8303 350.5,50.5C 329.52,41.5086 307.854,35.1752 285.5,31.5 Z"/></g>
<g><path style="opacity:0.982" fill="#fd993f" d="M 101.5,50.5 C 121.167,50.5 140.833,50.5 160.5,50.5C 147.707,57.0632 135.373,64.3965 123.5,72.5C 108.5,71.8333 93.5,71.1667 78.5,70.5C 85.5501,63.1161 93.2167,56.4494 101.5,50.5 Z"/></g>
<g><path style="opacity:0.982" fill="#fd993f" d="M 408.5,49.5 C 417.452,56.1179 425.785,63.4513 433.5,71.5C 417.833,71.5 402.167,71.5 386.5,71.5C 374.82,63.9919 362.82,56.9919 350.5,50.5C 370.007,50.8303 389.341,50.497 408.5,49.5 Z"/></g>
<g><path style="opacity:0.977" fill="#fd9240" d="M 78.5,70.5 C 93.5,71.1667 108.5,71.8333 123.5,72.5C 116.356,77.9162 109.356,83.5829 102.5,89.5C 88.5,89.5 74.5,89.5 60.5,89.5C 65.7967,82.5356 71.7967,76.2023 78.5,70.5 Z"/></g>
<g><path style="opacity:0.974" fill="#fd923f" d="M 386.5,71.5 C 402.167,71.5 417.833,71.5 433.5,71.5C 439.87,76.8695 445.537,82.8695 450.5,89.5C 436.5,89.5 422.5,89.5 408.5,89.5C 401.127,83.4894 393.794,77.4894 386.5,71.5 Z"/></g>
<g><path style="opacity:0.982" fill="#fd8c40" d="M 60.5,89.5 C 74.5,89.5 88.5,89.5 102.5,89.5C 96.4722,95.8597 90.4722,102.193 84.5,108.5C 72.011,107.505 59.3443,107.171 46.5,107.5C 50.2025,100.768 54.8692,94.7675 60.5,89.5 Z"/></g>
<g><path style="opacity:0.976" fill="#fd8c40" d="M 408.5,89.5 C 422.5,89.5 436.5,89.5 450.5,89.5C 455.561,94.2288 459.894,99.5622 463.5,105.5C 451.467,107.19 439.134,108.19 426.5,108.5C 420.528,102.193 414.528,95.8597 408.5,89.5 Z"/></g>
<g><path style="opacity:0.978" fill="#fd8740" d="M 463.5,105.5 C 468.402,112.291 473.068,119.291 477.5,126.5C 465.167,126.5 452.833,126.5 440.5,126.5C 435.845,120.539 431.178,114.539 426.5,108.5C 439.134,108.19 451.467,107.19 463.5,105.5 Z"/></g>
<g><path style="opacity:0.975" fill="#fd8640" d="M 46.5,107.5 C 59.3443,107.171 72.011,107.505 84.5,108.5C 79.4513,114.214 74.7846,120.214 70.5,126.5C 58.3217,126.828 46.3217,126.495 34.5,125.5C 38.017,119.119 42.017,113.119 46.5,107.5 Z"/></g>
<g><path style="opacity:0.956" fill="#fd8641" d="M 291.5,126.5 C 267.661,126.831 243.994,126.498 220.5,125.5C 230.934,118.304 242.601,114.971 255.5,115.5C 268.965,114.859 280.965,118.526 291.5,126.5 Z"/></g>
<g><path style="opacity:0.988" fill="#fe7f41" d="M 220.5,125.5 C 243.994,126.498 267.661,126.831 291.5,126.5C 300.941,131.94 307.941,139.607 312.5,149.5C 311.711,149.217 311.044,148.717 310.5,148C 273.664,147.833 236.998,147.333 200.5,146.5C 205.093,137.572 211.76,130.572 220.5,125.5 Z"/></g>
<g><path style="opacity:0.973" fill="#fe8041" d="M 34.5,125.5 C 46.3217,126.495 58.3217,126.828 70.5,126.5C 65.8195,133.87 61.1529,141.203 56.5,148.5C 45.5,147.833 34.5,147.167 23.5,146.5C 26.4056,139.019 30.0723,132.019 34.5,125.5 Z"/></g>
<g><path style="opacity:0.975" fill="#fe8041" d="M 440.5,126.5 C 452.833,126.5 465.167,126.5 477.5,126.5C 481.358,132.883 484.692,139.55 487.5,146.5C 476.346,147.495 465.012,147.828 453.5,147.5C 449.417,140.332 445.084,133.332 440.5,126.5 Z"/></g>
<g><path style="opacity:0.994" fill="#fe7941" d="M 200.5,146.5 C 236.998,147.333 273.664,147.833 310.5,148C 311.044,148.717 311.711,149.217 312.5,149.5C 315.464,154.382 317.464,159.715 318.5,165.5C 276.5,165.5 234.5,165.5 192.5,165.5C 193.632,158.415 196.298,152.082 200.5,146.5 Z"/></g>
<g><path style="opacity:0.98" fill="#fe7941" d="M 23.5,146.5 C 34.5,147.167 45.5,147.833 56.5,148.5C 53.8308,154.504 51.1642,160.504 48.5,166.5C 37.5813,165.523 26.5813,165.19 15.5,165.5C 17.4058,158.764 20.0725,152.431 23.5,146.5 Z"/></g>
<g><path style="opacity:0.976" fill="#fe7941" d="M 487.5,146.5 C 490.927,152.431 493.594,158.764 495.5,165.5C 484.807,165.54 473.807,165.54 462.5,165.5C 459.533,159.565 456.533,153.565 453.5,147.5C 465.012,147.828 476.346,147.495 487.5,146.5 Z"/></g>
<g><path style="opacity:0.993" fill="#fe7342" d="M 192.5,165.5 C 234.5,165.5 276.5,165.5 318.5,165.5C 319.888,171.712 320.555,178.046 320.5,184.5C 276.948,185.153 233.615,184.486 190.5,182.5C 190.597,176.723 191.264,171.057 192.5,165.5 Z"/></g>
<g><path style="opacity:0.977" fill="#fe6f42" d="M 15.5,165.5 C 26.5813,165.19 37.5813,165.523 48.5,166.5C 43.5059,178.149 39.5059,190.149 36.5,202.5C 25.7517,202.809 15.085,202.476 4.5,201.5C 7.25598,189.123 10.9226,177.123 15.5,165.5 Z"/></g>
<g><path style="opacity:0.994" fill="#fe6d41" d="M 190.5,182.5 C 233.615,184.486 276.948,185.153 320.5,184.5C 319.49,190.543 318.157,196.543 316.5,202.5C 275.833,202.5 235.167,202.5 194.5,202.5C 192.533,195.965 191.2,189.299 190.5,182.5 Z"/></g>
<g><path style="opacity:0.974" fill="#fe6f42" d="M 462.5,165.5 C 473.807,165.54 484.807,165.54 495.5,165.5C 500.39,177.713 504.057,190.38 506.5,203.5C 495.915,202.524 485.248,202.191 474.5,202.5C 471.299,189.897 467.299,177.563 462.5,165.5 Z"/></g>
<g><path style="opacity:0.993" fill="#fe6742" d="M 194.5,202.5 C 235.167,202.5 275.833,202.5 316.5,202.5C 313.03,210.953 308.03,218.287 301.5,224.5C 270.671,223.502 239.671,223.169 208.5,223.5C 202.298,217.612 197.631,210.612 194.5,202.5 Z"/></g>
<g><path style="opacity:0.977" fill="#fe6243" d="M 4.5,201.5 C 15.085,202.476 25.7517,202.809 36.5,202.5C 33.0123,215.913 31.0123,229.58 30.5,243.5C 20.2487,242.525 9.91536,242.192 -0.5,242.5C -0.5,239.167 -0.5,235.833 -0.5,232.5C 0.87106,222.253 2.53773,211.919 4.5,201.5 Z"/></g>
<g><path style="opacity:0.979" fill="#fe6042" d="M 208.5,223.5 C 239.671,223.169 270.671,223.502 301.5,224.5C 284.969,241.396 264.969,247.563 241.5,243C 228.267,240.059 217.267,233.559 208.5,223.5 Z"/></g>
<g><path style="opacity:0.973" fill="#fe6242" d="M 474.5,202.5 C 485.248,202.191 495.915,202.524 506.5,203.5C 508.582,213.195 510.249,222.862 511.5,232.5C 511.5,235.5 511.5,238.5 511.5,241.5C 501.167,242.167 490.833,242.833 480.5,243.5C 479.804,229.627 477.804,215.96 474.5,202.5 Z"/></g>
<g><path style="opacity:0.984" fill="#fe5643" d="M -0.5,242.5 C 9.91536,242.192 20.2487,242.525 30.5,243.5C 29.5027,255.541 29.836,267.541 31.5,279.5C 21.2487,278.525 10.9154,278.192 0.5,278.5C 0.166667,278.5 -0.166667,278.5 -0.5,278.5C -0.5,266.5 -0.5,254.5 -0.5,242.5 Z"/></g>
<g><path style="opacity:0.984" fill="#fe5643" d="M 511.5,241.5 C 511.5,253.833 511.5,266.167 511.5,278.5C 511.167,278.5 510.833,278.5 510.5,278.5C 500.167,278.5 489.833,278.5 479.5,278.5C 480.436,266.871 480.77,255.204 480.5,243.5C 490.833,242.833 501.167,242.167 511.5,241.5 Z"/></g>
<g><path style="opacity:0.976" fill="#fe5243" d="M 348.5,278.5 C 286.5,278.5 224.5,278.5 162.5,278.5C 168.44,274.233 175.107,271.4 182.5,270C 231.167,269.333 279.833,269.333 328.5,270C 336.058,271.01 342.724,273.844 348.5,278.5 Z"/></g>
<g><path style="opacity:0.996" fill="#fe4e43" d="M 162.5,278.5 C 224.5,278.5 286.5,278.5 348.5,278.5C 356.886,283.219 363.219,289.886 367.5,298.5C 292.904,297.503 218.238,297.17 143.5,297.5C 148.188,289.479 154.521,283.145 162.5,278.5 Z"/></g>
<g><path style="opacity:0.996" fill="#fe4745" d="M 143.5,297.5 C 218.238,297.17 292.904,297.503 367.5,298.5C 371.009,304.69 373.342,311.357 374.5,318.5C 295.167,318.5 215.833,318.5 136.5,318.5C 137.83,311.176 140.164,304.176 143.5,297.5 Z"/></g>
<g><path style="opacity:0.975" fill="#fe4a44" d="M 0.5,278.5 C 10.9154,278.192 21.2487,278.525 31.5,279.5C 32.7202,292.711 35.0535,305.711 38.5,318.5C 27.9865,318.172 17.6532,318.506 7.5,319.5C 3.34955,306.267 1.01622,292.6 0.5,278.5 Z"/></g>
<g><path style="opacity:0.978" fill="#fe4a44" d="M 479.5,278.5 C 489.833,278.5 500.167,278.5 510.5,278.5C 509.8,292.034 507.8,305.367 504.5,318.5C 493.833,318.5 483.167,318.5 472.5,318.5C 475.863,305.353 478.196,292.02 479.5,278.5 Z"/></g>
<g><path style="opacity:0.998" fill="#fd4144" d="M 136.5,318.5 C 215.833,318.5 295.167,318.5 374.5,318.5C 374.5,326.833 374.5,335.167 374.5,343.5C 373.532,341.393 373.198,339.059 373.5,336.5C 294.5,336.5 215.5,336.5 136.5,336.5C 136.5,330.5 136.5,324.5 136.5,318.5 Z"/></g>
<g><path style="opacity:0.982" fill="#fe3d45" d="M 38.5,318.5 C 42.5703,330.655 47.237,342.655 52.5,354.5C 41.3206,354.172 30.3206,354.505 19.5,355.5C 14.1281,344.051 10.1281,332.051 7.5,319.5C 17.6532,318.506 27.9865,318.172 38.5,318.5 Z"/></g>
<g><path style="opacity:0.998" fill="#fd3b45" d="M 136.5,336.5 C 215.5,336.5 294.5,336.5 373.5,336.5C 373.198,339.059 373.532,341.393 374.5,343.5C 374.5,347.167 374.5,350.833 374.5,354.5C 295.5,354.5 216.5,354.5 137.5,354.5C 137.737,353.209 137.404,352.209 136.5,351.5C 136.5,346.5 136.5,341.5 136.5,336.5 Z"/></g>
<g><path style="opacity:0.977" fill="#fe3d45" d="M 472.5,318.5 C 483.167,318.5 493.833,318.5 504.5,318.5C 501.102,330.695 497.102,342.695 492.5,354.5C 481.167,354.5 469.833,354.5 458.5,354.5C 463.384,342.503 468.051,330.503 472.5,318.5 Z"/></g>
<g><path style="opacity:0.997" fill="#fd3445" d="M 136.5,351.5 C 137.404,352.209 137.737,353.209 137.5,354.5C 216.5,354.5 295.5,354.5 374.5,354.5C 374.764,361.89 374.43,369.223 373.5,376.5C 294.763,376.83 216.096,376.497 137.5,375.5C 136.533,367.586 136.199,359.586 136.5,351.5 Z"/></g>
<g><path style="opacity:0.978" fill="#fe3446" d="M 52.5,354.5 C 56.7981,361.811 61.1314,369.144 65.5,376.5C 53.5,376.5 41.5,376.5 29.5,376.5C 25.3846,369.933 22.0512,362.933 19.5,355.5C 30.3206,354.505 41.3206,354.172 52.5,354.5 Z"/></g>
<g><path style="opacity:0.98" fill="#fe3446" d="M 458.5,354.5 C 469.833,354.5 481.167,354.5 492.5,354.5C 489.343,362.146 485.677,369.48 481.5,376.5C 469.42,376.188 457.42,376.521 445.5,377.5C 449.584,369.663 453.917,361.997 458.5,354.5 Z"/></g>
<g><path style="opacity:0.995" fill="#fe2e46" d="M 137.5,375.5 C 216.096,376.497 294.763,376.83 373.5,376.5C 370.317,385.849 363.984,392.015 354.5,395C 288.5,395.667 222.5,395.667 156.5,395C 146.576,391.911 140.243,385.411 137.5,375.5 Z"/></g>
<g><path style="opacity:0.974" fill="#fe2546" d="M 481.5,376.5 C 471.437,396.629 458.437,414.629 442.5,430.5C 427.99,430.829 413.657,430.496 399.5,429.5C 417.175,414.086 432.508,396.752 445.5,377.5C 457.42,376.521 469.42,376.188 481.5,376.5 Z"/></g>
<g><path style="opacity:0.976" fill="#fe2547" d="M 29.5,376.5 C 41.5,376.5 53.5,376.5 65.5,376.5C 71.7291,386.236 78.5624,395.569 86,404.5C 94.3951,413.063 102.895,421.396 111.5,429.5C 97.5,430.167 83.5,430.833 69.5,431.5C 53.0792,415.412 39.7459,397.079 29.5,376.5 Z"/></g>
<g><path style="opacity:0.98" fill="#ff1348" d="M 111.5,429.5 C 179.769,482.089 254.769,494.256 336.5,466C 359.427,456.879 380.427,444.713 399.5,429.5C 413.657,430.496 427.99,430.829 442.5,430.5C 419.411,456.046 392.078,475.713 360.5,489.5C 290.5,488.167 220.5,488.167 150.5,489.5C 119.443,475.807 92.4433,456.474 69.5,431.5C 83.5,430.833 97.5,430.167 111.5,429.5 Z"/></g>
<g><path style="opacity:0.981" fill="#ff0949" d="M 150.5,489.5 C 220.5,488.167 290.5,488.167 360.5,489.5C 334.254,501.227 306.921,508.56 278.5,511.5C 263.167,511.5 247.833,511.5 232.5,511.5C 204.079,508.56 176.746,501.227 150.5,489.5 Z"/></g>
</svg>
